<?xml version="1.0" encoding="UTF-8"?>
<!DOCTYPE svg PUBLIC "-//W3C//DTD SVG 1.1//EN" "http://www.w3.org/Graphics/SVG/1.1/DTD/svg11.dtd">
<!-- Creator: CorelDRAW -->
<svg xmlns="http://www.w3.org/2000/svg" xml:space="preserve" width="17.8174mm" height="25mm" version="1.1" style="shape-rendering:geometricPrecision; text-rendering:geometricPrecision; image-rendering:optimizeQuality; fill-rule:evenodd; clip-rule:evenodd"
viewBox="0 0 160.5 225.2"
 xmlns:xlink="http://www.w3.org/1999/xlink"
 xmlns:xodm="http://www.corel.com/coreldraw/odm/2003">
 <defs>
  <style type="text/css">
   <![CDATA[
    .fil0 {fill:#0C3F6E}
    .fil1 {fill:#0C3F6E;fill-rule:nonzero}
   ]]>
  </style>
 </defs>
 <g id="Ebene_x0020_1">
  <metadata id="CorelCorpID_0Corel-Layer"/>
  <g id="_2403683449168">
   <path class="fil0" d="M71.51 177.38l0.52 -6.48c-1.31,-1.98 -1.26,-3.82 0.14,-5.53l0.43 -20.56c-0.31,-1.36 -5.06,-3.32 -0.09,-5.57 0.94,-0.85 -0.67,-1.59 -1,-2.39l-0.11 -6.86c-6.21,-8.54 -13.28,-8.51 -21.2,0.11 -0.54,2.18 -0.49,4.57 -0.11,7.08 7.21,-1.04 9.14,0.93 5.78,5.9 7.89,-0.43 8.93,1.43 3.11,5.58 8.35,2.65 8.99,5.65 1.93,9.01 2.84,7.39 0.16,7.06 -5.03,3.22l-3.21 -0.11c-4.59,1.86 -5.31,-0.91 -4.28,-5.79 -6.3,-0.18 -7.81,-2.79 -2.34,-8.97 -5.84,-1.8 -5.24,-4.6 -0.24,-8.09 0.29,-5.88 -1.2,-7.97 3.43,-12.44 -1.54,-0.86 -3.41,-1.01 -5.78,-0.11 -1.39,0.37 -2.03,1.15 -3.43,2.36 -1.03,1.36 -1.78,2.57 -0.75,3.65 2.38,4.52 -0.24,5.04 -5.14,3.75 4.14,6.44 3.03,9.37 -4.39,8.04 2.81,7.05 0.95,9.51 -5.57,7.4 -5.5,7.45 -8.94,5.92 -6.19,-2.9 -6.25,-4.98 -5.08,-7.98 3.31,-8.09 -4.65,-6.38 -4.15,-9.41 5.77,-7.57 -2.39,-5.81 -0.6,-7.98 7.28,-4.83 1.92,-0.2 2.98,-0.8 3.97,-2.51 0.78,-1.87 -0.59,-3.78 -2.98,-4.17 -1.12,-0.1 -1.76,-0.58 -3.35,-0.3 -4.47,1.77 -6.91,1.61 -5.91,-3.82 -6.12,1.1 -9.56,0.59 -5.96,-5.62 -6.8,-1.13 -8.88,-3.74 -1.68,-6.15 -4.84,-9.49 0.06,-13.13 4.87,-3.82 5.55,-4.77 6.99,-1.58 6.57,5.24 4.4,-4.05 6.28,-2.69 5.64,4.09 4.98,-0.24 6.97,1.3 3.64,6.01 -0.09,1.73 0.61,3.27 2.11,4.62 3.06,1.12 6.33,0.99 9.67,0.42 2.74,-0.48 5.21,-1.46 7.5,-2.79 0.18,-2.23 -0.4,-4 -2.36,-4.93 -2.52,-0.79 -5.12,-0.65 -7.82,0.43 -0.86,-1.04 -2.42,-2.13 -1.63,-3.31 0.39,-0.83 1.25,-1.02 2.59,-0.55 2.82,1.06 5.64,1.15 8.46,0.43 2.4,-4.6 3.74,-4.87 3.54,1.18 1.62,1.55 2.46,3.49 2.78,5.68 0.85,1.66 2.35,2.52 4.5,2.57 1.53,-0.03 2.75,-0.68 3.64,-1.93 1.21,-3.65 1.52,-7.07 0.21,-10.08 -2.77,-4.67 -5.87,-8.73 -10.87,-12.28l-2.48 0.06c-1.11,5.44 -2.9,5.22 -5.5,0 -2.25,5.43 -4.5,6.16 -6.75,0 -3.94,4.79 -7.14,6.68 -7.71,-1.82 -4.56,3.77 -8.74,4.91 -6.44,-3.75 -9.17,1.44 -12.11,-13.96 -0.84,-6.01 3.76,-8.68 7.15,-8.86 10.17,-0.54 2.85,-3.6 5.55,-3.03 8.03,3.65 2.51,-3.93 5.66,-1.17 9.1,4.61 2.76,1.64 4.06,-3.42 3.28,-5.15 -1.47,-0.35 -1.73,-1.89 -2.54,-5.15 -3.87,1.9 -6.88,1.96 -6.81,-4.56 -5.83,2.43 -8.85,1.94 -5.72,-4.97 -6.86,0.52 -11.1,-0.44 -5.98,-6.65 -8.97,-6.44 -3.12,-12.78 5.95,-3.98 4.9,-8.82 7.42,-7.17 9.15,2.69 7.03,-7.11 4.6,3.17 5.14,6.44 5.41,-1.83 5.29,2.11 2.68,8.69 0.31,2.72 1,4.76 2.25,5.79 1.17,2.9 0.74,5.09 0.05,7.99 2.29,2.65 4.88,5.16 8.11,7.33 1.1,0.82 3.13,1.37 3.38,0.25 0.77,-3.35 -1.01,-6 -0.4,-9.44l0.92 -3.08c-0.6,-3.09 -0.86,-6.05 -0.34,-9.34 -6.88,-1.39 -10.15,-3.27 -4.22,-7.66 -7.59,-3.83 -8.44,-6.84 -0.44,-9.37 -8.02,-6.4 -7.81,-11.06 2.15,-7.04 1.23,-12.31 10.29,-10.59 8.26,0.27 9.8,-3.37 9.96,-0.2 3.52,7.46 7.37,0.07 7.86,3.22 -0.18,8.27 4.8,2.76 1.36,5.44 -4.39,8.1 -0.43,3.8 -0.39,7.74 0.04,11.81 0.54,1.29 0.59,2.61 -0.07,3.98 -0.72,1.75 -0.61,3.94 -0.11,6.33l1.5 0.86 10.07 -8.69c0.71,-1.61 0.98,-3.45 0.3,-5.82 0.11,-0.58 0.42,-1.08 0.96,-1.33 0.49,-1.53 1.17,-3 0.35,-4.54 -3.25,-2.94 -3.31,-4.81 1.29,-5.15 -1.72,-6.37 -1.58,-10.58 5.21,-7.05 -0.17,-7.93 1.25,-11.9 7.06,-4.97 3.79,-14.81 12.57,-5.88 6.51,-0.32 -0.69,0.27 -0.62,2.14 0.04,2.56 10.04,4.21 3.68,10.28 -3.18,4.82 -1.61,-0.9 -3.63,0.24 -2.56,1.34 7.59,7.8 -0.88,6.11 -3.92,3.15 -1.03,-0.53 -2.18,-0.22 -1.84,1.37 3.3,4.06 1.34,5.07 -3.57,4.36 -1.75,0.15 -0.12,3.09 -2.14,3.97 -0.37,2.1 -0.92,4.49 -0,6.28 1.39,0.62 3.1,0.76 4.59,-0.35l2.38 -1.96c0.04,-4.39 1.27,-5.9 5.16,-2.82 1.78,0.94 2.8,0.5 2.81,-1.41 -2.13,-4.91 -0.8,-5.97 3.99,-3.18 0.45,0.46 1.69,-0.14 1.81,-0.6 1.48,-5.39 3.77,-7.07 6.58,-1.52 10.32,-5.41 10.94,2.49 3.72,7.32 2.65,5.9 -0.08,6.71 -5.83,4.66 -0.11,5.83 -2.24,7.15 -6.36,4 -2.41,4.98 -5.08,5.71 -8.14,0.22 -2.09,3 -3.93,4.74 -5.65,0.03 -0.9,-1.87 -5.75,-0.84 -7.55,1.45 -0.56,0.45 -1.37,1.21 -2.44,1.09l-8.03 7.72c-1.19,1.29 -0.03,2.89 0.19,4.17 0.52,2.51 0.45,5.01 0.13,7.51 0.58,1.56 1.6,2.41 3.05,2.33 1.21,-0.08 2.53,-0.9 3.8,-2.48 1.59,-0.41 3.04,0.14 4.35,-0.79 0.97,-1.35 1.76,-2.67 3.49,-3.65 0.8,-1.81 0.33,-2.77 0.3,-4.2 0.78,-2.47 1.57,-2.33 2.36,0.43 0.78,0.59 1.57,0.59 2.36,0 8.36,-8.17 13.88,-4.96 1.1,2.41 -2.09,1.7 -4.05,3 -4.64,4.78 0.1,1.77 3.04,0.52 4.97,1.02 1.8,0.24 2.89,1.32 4.34,1.98 2.11,0.8 4.74,0.35 6.32,-0.43 2.87,-1.14 5.3,-2.82 6.96,-5.47 -7.22,-1.9 -8.78,-4.48 -0.22,-8.26 -2.47,-4.83 -1.06,-6.93 6,-5.04 0.86,-6.12 2.54,-9.87 7.15,-5.14 5.91,-7.91 7.5,-5.94 6.13,2.78 5.89,2.5 4.34,5.33 -2.27,8.38 7.03,3.79 5.34,6.25 -3.58,7.6 0.94,9.05 -2.66,8.33 -8.82,2.14 -3.92,1.64 -6.41,2.17 -8.93,5.46 -0.64,4.04 4.64,5.59 6.04,4.82 4.13,-4.06 5.75,-1.46 6.25,3.54 6.08,-3.11 7.61,-0.73 6.04,5.4 8.2,-0.72 9.25,1.64 3.18,7.09 7.75,5.78 6.68,7.82 -1.71,6.76 -3.15,4.46 -5.71,5.25 -6.98,-2.07 -5.08,2.59 -8.14,2.37 -5.65,-5.61 -4.75,2.61 -7.98,0.69 -3.24,-5.86 -5.52,-0.03 -6.72,-1.89 -3.09,-6.41 -0.63,-1.03 -1.5,-1.98 -2.72,-2.83 -0.98,-0.76 -3.67,-1.42 -3.38,-0.05 0.73,3.4 1.09,5.39 -0.16,7.12 2.76,0.9 2.41,3.6 0.32,7.29 4.49,5.77 3.84,8.45 -1.93,8.04 2.51,7.59 1.23,10.62 -5.59,6.99 -5.51,8.28 -9.1,10.13 -8.44,-2.17 -6.22,-4.02 -6.37,-7.44 2.36,-9.97 -4.72,-4.89 -3.44,-7.45 4.73,-6.94 -3.1,-4.99 -2.85,-8.16 3.41,-5.07 1.26,0.49 1.77,-0.11 2.33,-1.35 0.58,-1.2 0.28,-2.91 -0.3,-4.3 -1.51,-2.9 -3.41,-4.26 -7.71,-4.65 -2.04,-0.24 -5.27,1.45 -7.59,1.18 -2.37,3.43 -5.01,6.26 -7.94,8.47l-0.37 17.38c2.09,1.69 2.69,4.82 -0.06,5.68 -0.22,3.54 -0.43,7.08 -0.64,10.62 0.83,4.78 0.77,9.33 0.11,13.73 2.14,3.69 5.11,6.32 9.32,7.4 2.69,0.8 5.33,0.68 7.93,-0.22 7.49,-7.35 10.78,-5.83 4.28,1.4 -0.4,1.19 -0.01,1.73 1.18,1.61 1.84,-0.4 3.53,0.65 5.35,0.11 1.52,-1.23 2.6,-3.56 4.72,-4.33 2.07,-0.98 4.41,-1.13 6.95,-0.71 4.88,-3.69 5.28,-1.32 1.66,2.06 -1.86,-0.28 -3.68,-0.27 -5.08,0.2 -2.35,1.19 -4.31,2.45 -5.78,4.82l-0.57 1.08c-1.18,0.14 -2.41,0.13 -3.72,-0.11 -1.24,-0.16 -1.46,0.34 -0.96,1.29 2.4,2.36 5.08,3.75 7.82,4.93 1.19,1.86 -0.12,2.42 -3.21,2.04 -4.25,-2.37 -8,-4.98 -10.75,-8.1 -2.7,0.79 -5.26,-1.06 -8.09,-1.01 -1.23,0.87 -0.67,2.86 0.11,4.29 2.37,2.21 3.76,5.54 6.9,7.25 2.44,2.12 0.66,2.52 -2.12,2.05 -4.33,-2.85 -8,-6.13 -9.8,-10.59 -0.77,-0.83 -0.67,-1.96 -1.03,-3.04 -0.74,-0.96 -1.89,-1.24 -3.27,-0.61 -0.91,-1.37 -2.21,-2.22 -3.86,-2.57 -1.37,1.65 -0.25,5.47 -0.25,8.15 3.12,2.21 5.24,4.7 6.68,7.37 1.07,2.18 0.34,2.49 -1.62,1.53 -1.36,-1.24 -2.66,-2.64 -3.77,-4.63 -1.59,-1.04 -2.75,-1.31 -2.98,0.11 0.27,2.19 0.24,4.29 0,6.33 -0.65,2.84 -2.76,4.58 -3.76,4.52 -1.04,-0.48 -0.5,-2.53 0.05,-4.12 0.3,-2.35 0.33,-4.56 0.27,-7.07 0.05,-0.78 -0.47,-1.94 -1.36,-1.38l-4.3 4.4c-2.1,0.66 -2.85,-0.21 -1.78,-2.15 2.24,-1.57 4.22,-3.62 5.9,-6.23 0.38,-0.68 0.4,-1.35 0.18,-2.03 -1.56,-2.17 0.42,-5.88 -0.75,-6.76 -2.64,-0.52 -6.45,4.7 -6.57,7.35 -1.43,2.73 -4.23,4.14 -6.6,6.96 -2.01,1.23 -4.97,0.24 -7.61,0.17 -2.1,0.48 -3.18,3.14 -5.25,4.18 -2.78,0.02 -3.58,-0.88 -1.5,-3.11 1.99,-0.92 3.99,-2.76 5.99,-4.15 1.65,-1 4.08,-0.52 6.11,-0.78 1.84,-0.44 2.5,-2.36 3.75,-3.54 3.78,-4.39 -2.8,-1.75 -4.58,-2.5 -1.94,-1.29 -4.11,-0.5 -7.03,1.32 -2.77,1.13 -5.42,1.59 -8.26,1.39 -1.93,-2.01 -3.19,-4.22 -3.26,-7.28 0.42,-1.46 -0.15,-2.34 -2.14,-2.36 -1.05,0.94 -2.05,1.55 -3,1.82 -0.02,0.79 -0.78,1.16 -1.4,1.43 -2.15,0.83 -4.11,-0.03 -5.88,-2.29 -0.39,-1.72 3.74,-0.49 5.25,-1.07 4.28,-4.58 8.12,-7.16 10.28,-0.22 0.44,2.41 1.43,3.75 2.68,4.61 2.34,0.82 4.8,0.44 7.28,-0.11 2.56,-0.98 3.09,-2.06 0,-3.32l-5.03 -2.57c-1.83,-0.74 3.75,-5.81 10.07,3.32 1.17,1.25 2.12,1.38 3.45,0.48 2.31,-1.31 4.64,-3.04 6.35,-4.88 -0.47,-1.14 -0.39,-2.28 0.26,-3.43z"/>
   <path class="fil0" d="M5.51 5.51l149.5 -0.01 -0 148.67c-13.34,80.1 -131,95.3 -149.5,0l-0 -148.67zm-5.51 -5.51l160.5 0 0 156.44c-15.84,84.26 -139.92,98.8 -160.5,-0l0 -156.44z"/>
   <polygon class="fil1" points="25.14,51.59 15.51,33.48 12.23,35.22 10.05,31.13 20.96,25.33 23.14,29.42 19.89,31.15 29.52,49.26 "/>
   <polygon id="_1" class="fil1" points="37.11,46.12 30.1,26.84 26.6,28.12 25.01,23.74 36.62,19.51 38.22,23.89 34.76,25.15 41.77,44.43 "/>
   <path id="_2" class="fil1" d="M58.62 34c0.51,2.41 0.4,4.17 -0.32,5.31 -0.73,1.14 -2.29,1.96 -4.7,2.47 -2.42,0.52 -4.18,0.41 -5.31,-0.33 -1.12,-0.74 -1.94,-2.31 -2.45,-4.73l-2.71 -12.77c-0.52,-2.42 -0.41,-4.2 0.31,-5.32 0.73,-1.12 2.3,-1.93 4.71,-2.45 2.41,-0.51 4.17,-0.39 5.3,0.35 1.13,0.74 1.94,2.31 2.45,4.71l0.59 2.76 -4.87 1.04 -0.56 -2.67c-0.17,-0.79 -0.41,-1.32 -0.72,-1.62 -0.32,-0.29 -0.75,-0.38 -1.3,-0.26 -0.53,0.11 -0.87,0.36 -1.03,0.74 -0.16,0.38 -0.16,0.95 0,1.72l2.7 12.7c0.16,0.79 0.39,1.32 0.68,1.59 0.29,0.27 0.71,0.35 1.26,0.24 0.56,-0.12 0.92,-0.38 1.08,-0.79 0.16,-0.41 0.15,-1.04 -0.04,-1.91l-0.62 -2.9 4.87 -1.04 0.67 3.15z"/>
   <polygon id="_3" class="fil1" points="70.46,38.96 69.14,13.82 74.02,13.56 74.55,23.63 78.01,23.44 77.48,13.38 82.35,13.13 83.67,38.27 78.8,38.52 78.25,28.03 74.79,28.22 75.33,38.7 "/>
   <path id="_4" class="fil1" d="M94.72 39c-0.06,-0.24 -0.12,-0.5 -0.16,-0.79 -0.05,-0.3 -0.09,-0.59 -0.11,-0.89 -0.47,0.66 -1.04,1.15 -1.68,1.46 -0.65,0.32 -1.35,0.45 -2.11,0.4 -1.41,-0.1 -2.41,-0.62 -2.99,-1.55 -0.58,-0.94 -0.81,-2.39 -0.67,-4.35 0.11,-1.55 0.42,-2.74 0.92,-3.55 0.51,-0.82 1.27,-1.37 2.3,-1.65 0.42,-0.12 0.98,-0.27 1.7,-0.45 2.15,-0.53 3.25,-1.24 3.32,-2.14 0.03,-0.45 -0.06,-0.81 -0.28,-1.09 -0.22,-0.27 -0.55,-0.42 -0.98,-0.45 -0.43,-0.03 -0.78,0.12 -1.04,0.45 -0.27,0.34 -0.42,0.84 -0.47,1.49 0,0.06 -0.01,0.15 0,0.28 0,0.12 0,0.22 -0.01,0.29l-4.31 -0.3 0.05 -0.64c0.14,-1.95 0.71,-3.35 1.71,-4.2 1.01,-0.85 2.51,-1.21 4.5,-1.07 1.99,0.14 3.42,0.68 4.29,1.61 0.86,0.94 1.23,2.34 1.09,4.2l-0.6 8.6c-0.09,1.35 -0.13,2.38 -0.1,3.07 0.02,0.69 0.11,1.22 0.24,1.61l-4.63 -0.32zm-2.95 -6.43l-0.11 1.58c-0.04,0.48 0.05,0.85 0.26,1.12 0.21,0.26 0.54,0.41 0.99,0.45 0.39,0.02 0.73,-0.06 1.01,-0.26 0.28,-0.19 0.48,-0.51 0.62,-0.92l0.32 -4.59c-0.34,0.19 -0.79,0.42 -1.36,0.69 -1.1,0.49 -1.68,1.14 -1.73,1.94z"/>
   <path id="_5" class="fil1" d="M110.65 34.8l1.28 -6.57c0.15,-0.8 0.16,-1.34 0.02,-1.63 -0.14,-0.28 -0.46,-0.48 -0.95,-0.57 -0.48,-0.09 -0.85,-0.03 -1.09,0.19 -0.24,0.22 -0.44,0.72 -0.59,1.5l-1.28 6.57c-0.15,0.79 -0.16,1.32 -0.02,1.59 0.14,0.27 0.46,0.46 0.95,0.55 0.49,0.09 0.86,0.04 1.1,-0.17 0.24,-0.21 0.43,-0.7 0.58,-1.47zm2.58 -11.89l4.44 0.86 -3.72 19.18c-0.39,1.99 -1.09,3.31 -2.11,3.96 -1.02,0.65 -2.57,0.76 -4.67,0.35 -2.16,-0.42 -3.62,-1.02 -4.38,-1.81 -0.76,-0.8 -1.01,-1.94 -0.71,-3.44 0.05,-0.25 0.09,-0.46 0.13,-0.63 0.04,-0.18 0.08,-0.35 0.13,-0.51l4.19 0.81c-0.05,0.58 0,1.01 0.16,1.29 0.16,0.29 0.47,0.48 0.91,0.56 0.5,0.09 0.87,0.02 1.13,-0.21 0.25,-0.24 0.45,-0.72 0.59,-1.45l0.74 -3.82c-0.57,0.78 -1.25,1.34 -2.03,1.68 -0.78,0.34 -1.58,0.43 -2.41,0.26 -1.18,-0.23 -1.99,-0.79 -2.41,-1.68 -0.42,-0.89 -0.48,-2.14 -0.16,-3.76l1.73 -8.86c0.31,-1.62 0.84,-2.77 1.56,-3.42 0.72,-0.66 1.69,-0.86 2.9,-0.64 0.84,0.16 1.57,0.54 2.17,1.13 0.6,0.58 1.07,1.37 1.41,2.36l0.44 -2.23z"/>
   <path id="_6" class="fil1" d="M130.56 39.99l-0.38 1.16c-0.6,1.85 -1.48,3.07 -2.63,3.65 -1.15,0.58 -2.67,0.56 -4.54,-0.05 -2.19,-0.71 -3.65,-1.6 -4.39,-2.67 -0.74,-1.07 -0.84,-2.43 -0.29,-4.09l2.81 -8.64c0.55,-1.68 1.43,-2.77 2.67,-3.25 1.22,-0.48 2.86,-0.39 4.91,0.28 1.91,0.62 3.19,1.52 3.85,2.69 0.65,1.18 0.69,2.65 0.11,4.43l-1.59 4.9 -7.13 -2.32 -0.98 3.01c-0.18,0.55 -0.19,0.98 -0.02,1.3 0.16,0.32 0.52,0.56 1.07,0.74 0.48,0.16 0.87,0.15 1.17,-0.03 0.3,-0.18 0.54,-0.53 0.71,-1.06l0.46 -1.42 4.2 1.37zm-5.64 -6.91l2.93 0.95 0.66 -2.02c0.17,-0.53 0.17,-0.96 0.01,-1.31 -0.17,-0.35 -0.51,-0.6 -1.01,-0.77 -0.47,-0.15 -0.86,-0.14 -1.19,0.05 -0.32,0.19 -0.56,0.55 -0.74,1.07l-0.66 2.02z"/>
   <path id="_7" class="fil1" d="M131.65 46.88l8.56 -16.1 3.97 2.11 -1.06 2.01c0.86,-0.56 1.71,-0.88 2.57,-0.96 0.85,-0.08 1.65,0.09 2.42,0.49 1.11,0.59 1.75,1.38 1.92,2.38 0.17,1 -0.12,2.22 -0.88,3.65l-6.51 12.24 -4.17 -2.21 5.75 -10.82c0.51,-0.96 0.77,-1.65 0.75,-2.06 -0.01,-0.41 -0.25,-0.74 -0.71,-0.98 -0.47,-0.25 -0.92,-0.25 -1.34,0 -0.42,0.25 -0.83,0.75 -1.23,1.51l-5.83 10.96 -4.2 -2.23z"/>
  </g>
 </g>
</svg>
